#!OML:ASF I:\Actors\actors\Patient Classification 1\Patient 1\Session 1\Subject1.ASF
:FULLY-SPECIFIED
:DEGREES
175
root 0.570478 17.659 9.26827 16.0643 7.56637 -7.5018
lowerback 5.5595 -0.152866 11.307
upperback -4.12263 1.20597 5.6788
thorax -7.46669 0.181066 -0.429415
lowerneck -7.94128 -5.03783 -2.15452
upperneck 2.53166 -6.80999 6.20666
head 2.52228 -3.22498 2.06097
rclavicle 7.7526e-015 -3.49861e-014
rhumerus -56.9971 30.0985 -111.04
rradius 117.45
rwrist -17.151
rhand 50.9406 -29.1134
rfingers 7.12502
rthumb 70.5549 -22.9914
lclavicle 7.7526e-015 -3.49861e-014
lhumerus -67.4342 -11.1537 108.77
lradius 114.974
lwrist 15.0622
lhand 27.2752 -9.8872
lfingers 7.12502
lthumb 51.2414 10.6585
rfemur -11.9212 21.0685 23.3481
rtibia 7.16512
rfoot -15.5655 -25.2003
rtoes 4.24118
lfemur -10.0157 -38.1977 -1.11442
ltibia -1.31823
lfoot -12.3664 41.0702
ltoes -3.50908
176
root 0.546871 17.6512 9.31844 16.1923 7.29828 -6.87526
lowerback 4.56744 -0.0362328 10.5069
upperback -4.64173 1.1714 5.35962
thorax -7.44772 0.183752 -0.319628
lowerneck -6.92188 -5.08216 -2.50993
upperneck 3.0398 -6.89355 6.61759
head 2.54571 -3.26805 2.27595
rclavicle -1.07344e-014 3.97569e-014
rhumerus -56.0253 29.8735 -110.481
rradius 116.755
rwrist -17.7713
rhand 52.8873 -30.8726
rfingers 7.12502
rthumb 71.7163 -20.1744
lclavicle -1.07344e-014 3.97569e-014
lhumerus -66.6183 -11.2711 108.54
lradius 114.958
lwrist 14.2008
lhand 28.6143 -9.51457
lfingers 7.12502
lthumb 52.4569 10.3157
rfemur -11.6616 21.4228 22.6876
rtibia 6.84331
rfoot -15.7177 -25.4259
rtoes 4.60958
lfemur -9.97723 -37.5661 -1.94778
ltibia -1.0292
lfoot -12.2953 40.5574
ltoes -4.4921
177
root 0.527546 17.6339 9.37279 16.0677 7.16348 -6.59233
lowerback 3.65836 0.00473931 10.1015
upperback -5.09347 1.08855 5.10491
thorax -7.40849 0.14781 -0.351176
lowerneck -5.65879 -5.06924 -2.6842
upperneck 3.20356 -6.90484 7.02098
head 2.39679 -3.28572 2.46753
rclavicle -1.33186e-014 6.67916e-014
rhumerus -54.9183 29.9855 -110.029
rradius 116.115
rwrist -18.7252
rhand 54.2064 -31.6346
rfingers 7.12502
rthumb 72.427 -17.5002
lclavicle -1.33186e-014 6.67916e-014
lhumerus -65.4232 -11.4056 108.33
lradius 114.892
lwrist 13.7382
lhand 30.443 -9.07575
lfingers 7.12502
lthumb 54.1048 9.69119
rfemur -11.0459 21.6905 22.5598
rtibia 6.42852
rfoot -15.8647 -25.5559
rtoes 4.65639
lfemur -9.67338 -36.7338 -2.59716
ltibia -0.649797
lfoot -12.2504 39.7596
ltoes -5.64995
178
root 0.515208 17.6085 9.42362 15.6751 7.10408 -6.74373
lowerback 2.94262 -0.0142297 10.1311
upperback -5.4122 0.985309 4.99848
thorax -7.34392 0.0872173 -0.463956
lowerneck -4.57081 -5.02668 -2.76809
upperneck 3.23045 -6.8721 7.37351
head 2.22638 -3.28275 2.62558
rclavicle -1.32192e-014 3.18055e-015
rhumerus -53.6214 30.6006 -109.644
rradius 115.518
rwrist -20.2935
rhand 54.9633 -31.6362
rfingers 7.12502
rthumb 72.8034 -15.4042
lclavicle -1.32192e-014 3.18055e-015
lhumerus -63.7891 -11.4968 108.195
lradius 114.804
lwrist 13.7691
lhand 32.7441 -8.29382
lfingers 7.12502
lthumb 56.1556 8.9746
rfemur -10.1745 21.7748 23.0476
rtibia 6.07441
rfoot -16.0194 -25.4557
rtoes 4.41448
lfemur -9.08664 -35.9658 -2.9001
ltibia -0.344662
lfoot -12.3291 39.0319
ltoes -6.34706
179
root 0.506377 17.5788 9.46906 15.145 6.94534 -6.991
lowerback 2.40947 0.0244211 10.248
upperback -5.61615 0.979294 4.89174
thorax -7.25358 0.0728525 -0.636326
lowerneck -3.91326 -5.03607 -2.78007
upperneck 3.28723 -6.91214 7.75323
head 2.14741 -3.30649 2.76826
rclavicle 4.96962e-016 -5.48646e-014
rhumerus -52.0925 31.2444 -109.275
rradius 115.02
rwrist -22.2617
rhand 55.825 -31.8136
rfingers 7.12502
rthumb 73.2017 -13.0813
lclavicle 4.96962e-016 -5.48646e-014
lhumerus -61.8956 -11.8359 108.188
lradius 114.673
lwrist 14.246
lhand 34.9537 -7.43685
lfingers 7.12502
lthumb 58.0968 8.19734
rfemur -9.26829 21.6554 23.6659
rtibia 5.86294
rfoot -16.1171 -25.1055
rtoes 4.2329
lfemur -8.30187 -35.2606 -3.19917
ltibia -0.109877
lfoot -12.4727 38.4459
ltoes -6.70637
180
root 0.49999 17.5476 9.50716 14.4365 6.62358 -7.2048
lowerback 2.26477 0.174927 10.3844
upperback -5.7829 1.17153 4.69279
thorax -7.32963 0.145918 -0.934078
lowerneck -3.5753 -5.12127 -2.87459
upperneck 3.31949 -7.05496 8.33441
head 2.13935 -3.37259 2.98476
rclavicle 1.20265e-014 -7.63333e-014
rhumerus -50.4815 31.5228 -108.823
rradius 114.571
rwrist -24.1824
rhand 56.8597 -32.0869
rfingers 7.12502
rthumb 73.634 -10.1971
lclavicle 1.20265e-014 -7.63333e-014
lhumerus -60.0599 -12.5719 108.37
lradius 114.413
lwrist 14.8392
lhand 37.0066 -6.89497
lfingers 7.12502
lthumb 59.8709 7.02013
rfemur -8.26426 21.4144 24.2838
rtibia 5.78707
rfoot -16.1537 -24.5936
rtoes 3.79264
lfemur -7.16756 -34.7651 -3.74721
ltibia 0.10397
lfoot -12.8107 38.0785
ltoes -6.75879
181
root 0.496226 17.5207 9.53974 13.6677 6.22303 -7.43651
lowerback 2.32478 0.366232 10.5393
upperback -5.98479 1.45276 4.48141
thorax -7.55328 0.253642 -1.26277
lowerneck -3.33284 -5.23206 -3.02133
upperneck 3.31072 -7.22647 8.91215
head 2.14061 -3.4533 3.20873
rclavicle 2.05742e-014 -4.92986e-014
rhumerus -49.0785 31.6388 -108.395
rradius 114.069
rwrist -25.738
rhand 57.6442 -32.6422
rfingers 7.12502
rthumb 73.9262 -8.24922
lclavicle 2.05742e-014 -4.92986e-014
lhumerus -58.4146 -13.3652 108.667
lradius 113.831
lwrist 15.3386
lhand 38.7784 -6.5651
lfingers 7.12502
lthumb 61.375 5.6859
rfemur -7.25334 21.232 24.9257
rtibia 5.8069
rfoot -16.2422 -24.0736
rtoes 3.32522
lfemur -5.78639 -34.6892 -4.3645
ltibia 0.137684
lfoot -13.2122 38.1044
ltoes -6.53739
182
root 0.500162 17.4989 9.56913 12.8696 5.99624 -8.0753
lowerback 2.42021 0.458387 11.1418
upperback -6.26613 1.65606 4.44374
thorax -7.89753 0.293911 -1.64397
lowerneck -3.10823 -5.27735 -2.90467
upperneck 3.42717 -7.31539 9.15583
head 2.15168 -3.49346 3.27244
rclavicle 7.28049e-015 -2.8625e-014
rhumerus -48.1328 31.7426 -108.19
rradius 113.34
rwrist -26.8633
rhand 57.9421 -32.7755
rfingers 7.12502
rthumb 74.0286 -7.40864
lclavicle 7.28049e-015 -2.8625e-014
lhumerus -57.035 -13.7285 108.922
lradius 112.924
lwrist 15.4803
lhand 39.829 -6.17832
lfingers 7.12502
lthumb 62.2533 4.99657
rfemur -6.2419 20.9418 26.0521
rtibia 5.81612
rfoot -16.2283 -23.5646
rtoes 2.6889
lfemur -4.38754 -34.4581 -4.45298
ltibia -0.0401748
lfoot -13.3274 37.9506
ltoes -6.64442
183
root 0.516154 17.479 9.59382 11.9828 6.05435 -9.46416
lowerback 2.64001 0.442057 12.6647
upperback -6.64147 1.83145 4.656
thorax -8.43534 0.255649 -2.25343
lowerneck -3.08242 -5.25191 -2.86602
upperneck 3.92285 -7.33237 9.34554
head 2.32129 -3.48588 3.32997
rclavicle 2.21148e-015 -3.81667e-014
rhumerus -47.7582 31.74 -108.316
rradius 112.953
rwrist -26.315
rhand 57.6467 -34.8892
rfingers 7.12502
rthumb 73.927 -10.4881
lclavicle 2.21148e-015 -3.81667e-014
lhumerus -56.0449 -13.6165 109.151
lradius 112.066
lwrist 14.7027
lhand 40.4634 -5.28184
lfingers 7.12502
lthumb 62.7782 5.20812
rfemur -5.19068 20.3198 28.0471
rtibia 5.78858
rfoot -16.0499 -22.9064
rtoes 1.96906
lfemur -3.02104 -33.9019 -3.60435
ltibia -0.376403
lfoot -13.0896 37.5006
ltoes -7.42273
184
root 0.502644 17.4932 9.65128 12.5773 5.80214 -8.19157
lowerback 1.24566 0.570337 10.8236
upperback -7.36624 1.71448 4.33387
thorax -8.41751 0.288022 -1.56146
lowerneck -3.16065 -5.23714 -3.02278
upperneck 4.57337 -7.37458 9.62767
head 2.58 -3.48492 3.45409
rclavicle 2.15433e-014 -2.38542e-015
rhumerus -47.8394 31.4062 -108.619
rradius 112.66
rwrist -25.202
rhand 57.2784 -36.0795
rfingers 7.12502
rthumb 73.7939 -12.865
lclavicle 2.15433e-014 -2.38542e-015
lhumerus -55.5259 -13.3357 109.485
lradius 111.658
lwrist 12.8882
lhand 41.3706 -4.38645
lfingers 7.12502
lthumb 63.5212 5.07502
rfemur -5.5424 21.0246 26.4459
rtibia 5.73282
rfoot -16.1971 -23.4971
rtoes 2.88131
lfemur -3.26346 -34.6505 -4.94635
ltibia -0.402238
lfoot -13.3086 38.3335
ltoes -7.21597
185
root 0.507448 17.5047 9.69735 12.8028 5.85929 -8.07803
lowerback 0.34994 0.626953 10.5631
upperback -8.05079 1.70536 4.22935
thorax -8.65065 0.270992 -1.50844
lowerneck -3.3373 -5.283 -3.09971
upperneck 5.09858 -7.48608 9.77393
head 2.81097 -3.52022 3.51171
rclavicle -1.11319e-014 8.74653e-015
rhumerus -48.1639 31.0966 -108.965
rradius 112.766
rwrist -23.9344
rhand 56.3935 -36.885
rfingers 7.12502
rthumb 73.4456 -16.4385
lclavicle -1.11319e-014 8.74653e-015
lhumerus -55.2522 -13.1126 109.86
lradius 111.808
lwrist 10.9086
lhand 42.5525 -4.51271
lfingers 7.12502
lthumb 64.4743 3.5158
rfemur -5.64378 21.0043 26.2755
rtibia 5.7667
rfoot -16.3126 -23.4728
rtoes 3.47546
lfemur -3.24565 -34.916 -5.09881
ltibia -0.520415
lfoot -13.2118 38.6813
ltoes -7.52474
186
root 0.528599 17.5126 9.73089 12.6529 6.16349 -8.95197
lowerback -0.0649007 0.637639 11.6626
upperback -8.6179 1.77598 4.28933
thorax -9.04689 0.196519 -2.0306
lowerneck -3.65036 -5.40128 -2.99793
upperneck 5.41915 -7.68024 9.79558
head 2.98957 -3.59708 3.48449
rclavicle -3.37934e-015 -6.91771e-014
rhumerus -48.5036 31.049 -109.215
rradius 113.196
rwrist -22.9746
rhand 55.6202 -37.5623
rfingers 7.12502
rthumb 73.11 -19.4353
lclavicle -3.37934e-015 -6.91771e-014
lhumerus -54.875 -13.1534 110.046
lradius 112.343
lwrist 9.76405
lhand 43.6578 -5.6235
lfingers 7.12502
lthumb 65.349 0.961439
rfemur -5.45977 20.325 27.3651
rtibia 5.85584
rfoot -16.2955 -22.9322
rtoes 3.27487
lfemur -2.96475 -34.6435 -4.28061
ltibia -0.680047
lfoot -12.8741 38.4714
ltoes -8.11495
187
root 0.513383 17.5422 9.79779 13.5464 6.15927 -7.51746
lowerback -1.93591 0.657766 9.67698
upperback -9.21421 1.47404 3.87191
thorax -8.61432 0.182313 -1.34842
lowerneck -3.76466 -5.55199 -2.83414
upperneck 5.18095 -7.88476 9.95637
head 2.94599 -3.6933 3.49697
rclavicle -8.54774e-015 -3.81667e-014
rhumerus -48.6362 31.1704 -109.255
rradius 113.749
rwrist -22.4287
rhand 55.8141 -38.1467
rfingers 7.12502
rthumb 73.1968 -19.4468
lclavicle -8.54774e-015 -3.81667e-014
lhumerus -54.1825 -13.5826 109.902
lradius 113.012
lwrist 9.64203
lhand 44.5414 -6.6072
lfingers 7.12502
lthumb 66.0355 -1.25431
rfemur -6.10829 21.0489 25.516
rtibia 5.79183
rfoot -16.5164 -23.8495
rtoes 3.71676
lfemur -3.76877 -35.3139 -5.4169
ltibia -0.638054
lfoot -13.1747 38.9992
ltoes -7.37736
188
root 0.514438 17.5601 9.85463 13.9657 6.25893 -6.99622
lowerback -3.42976 0.689684 8.99954
upperback -9.55416 1.31385 3.54934
thorax -8.11952 0.150732 -1.29586
lowerneck -3.73913 -5.64964 -2.73975
upperneck 4.50803 -7.9892 10.354
head 2.7393 -3.75143 3.61406
rclavicle -7.7526e-015 -3.97569e-015
rhumerus -48.2658 31.2361 -108.871
rradius 114.311
rwrist -22.0183
rhand 56.5122 -38.3295
rfingers 7.12502
rthumb 73.4946 -17.5186
lclavicle -7.7526e-015 -3.97569e-015
lhumerus -53.1397 -14.3067 109.372
lradius 113.708
lwrist 10.0349
lhand 45.3971 -6.67711
lfingers 7.12502
lthumb 66.6883 -2.58821
rfemur -6.31104 21.3911 24.8689
rtibia 5.72497
rfoot -16.6187 -24.4025
rtoes 3.74609
lfemur -3.97884 -35.6282 -5.81209
ltibia -0.794922
lfoot -13.3799 39.1656
ltoes -6.73652
